<?xml version="1.0"?><svg version="1.2" baseProfile="tiny-ps" viewBox="0 0 300 300" xmlns="http://www.w3.org/2000/svg" xmlns:xlink="http://www.w3.org/1999/xlink"><title>imago</title><g><g fill="#fdffff" transform="matrix(.1 0 0 -.1 0 300)"><path d="M0 1500V0h3000v3000H0V1500z"/></g><g fill="#cfe1d7" transform="matrix(.1 0 0 -.1 0 300)"><path d="M1380 2523c-23-27-69-88-101-137l-59-89-30-78c-16-42-35-99-41-125l-11-49v-110l1-110 24-95c14-52 39-127 56-165 35-77 102-186 113-182 15 5 127 148 174 222 73 113 120 210 161 333l36 107 5 91 4 92-17 53c-24 75-67 140-132 199-46 42-119 90-137 90-2 0-23-21-46-47zm889-434c-261-158-472-367-581-574-47-91-91-225-114-350l-19-100V735l13-70c23-123 33-165 41-165 3 0 12 33 18 73 25 157 118 377 228 542 64 96 170 221 219 259l36 27-19-43c-10-24-105-238-210-477s-190-436-188-438c3-2 51 27 108 65 396 261 736 663 799 942l10 45v190l-21 75-20 75-40 73c-40 76-108 170-151 210l-24 22-85-51zM515 1710c-34-5-76-12-95-17l-35-10 3-114 2-114 16-95c43-255 134-441 296-601l79-78 98-66c109-72 210-122 326-160 43-14 80-25 83-25s-33 36-80 80c-105 97-182 197-253 325l-53 97-37 110c-20 60-35 114-33 120l4 11 253-341c139-188 257-344 262-347l9-6v56c0 148-44 397-101 570-17 50-56 144-88 210l-58 120-46 60-45 60-49 37c-71 53-110 74-183 96l-65 19-75 6-75 5-60-8z"/></g><g fill="#91c5aa" transform="matrix(.1 0 0 -.1 0 300)"><path d="M1368 2503c-103-127-155-219-199-348l-24-70 1-150 1-150 27-89 27-90 45-85c24-47 53-97 64-111l21-25 45 50c139 154 262 385 313 586l21 83v114l-20 65-20 65-45 60-44 61-72 50c-40 28-75 51-79 51s-32-30-62-67zm892-423c-179-108-361-267-473-415l-60-80-49-102-49-102-29-113-28-113-12-120-12-119 7-91c7-98 32-267 45-299l8-21 5 15c3 8 10 44 17 78 18 102 57 208 125 347l64 130 71 95c70 93 210 244 218 235 3-2-89-216-203-475s-205-473-202-476c8-9 239 152 343 240 241 203 462 489 531 688l25 73 5 96 6 97-18 77-17 77-49 96-48 97-56 65c-31 36-61 66-68 68-7 1-50-20-97-48zM450 1697l-55-12-3-90-3-90 11-90c15-115 50-249 89-344l31-74 54-81 54-82 84-80c96-92 196-163 315-223 79-39 217-91 245-91h13l-40 32c-136 108-267 289-348 478-34 81-80 230-73 237 2 2 122-157 267-354l264-357 3 29c6 45-17 250-38 356-44 214-120 420-210 566l-49 80-59 54-58 54-60 32-61 32-64 16-64 15-95-1-95-1-55-11z"/></g><g fill="#3bb075" transform="matrix(.1 0 0 -.1 0 300)"><path d="M1380 2513c-64-73-118-156-166-257l-43-91-17-85-17-85 6-95 6-95 20-76c11-41 31-104 46-140 27-65 105-199 115-199 11 0 118 137 173 220 72 112 108 185 150 306l35 100 12 74 12 75-11 59c-6 32-22 83-35 112l-25 54-52 55c-50 53-135 115-157 115-5 0-29-21-52-47zm880-436c-258-158-472-374-572-577-43-88-79-193-104-311l-19-84V705l19-95 19-94 8 19c4 11 15 56 24 100 36 170 139 385 260 547 61 81 214 242 222 234 3-2-89-215-202-473-114-257-209-474-212-481l-6-14 62 39c243 151 495 385 657 609l64 89 50 100 49 100 16 77c19 96 19 146 1 242l-15 75-28 68c-16 38-49 97-73 133-45 66-118 150-129 149-3 0-44-24-91-52zM490 1703c-14-2-43-9-64-14l-39-11 6-131 5-132 21-102c51-248 143-419 308-573 81-76 201-160 298-208 58-29 227-92 246-92 6 0-17 22-50 50-117 98-257 294-326 457-37 90-79 227-73 242 2 4 122-153 268-351 145-197 266-358 268-358 7 0-8 177-24 285-48 334-194 675-346 809l-53 47-61 29c-33 16-90 36-125 45l-64 15-85-2c-47 0-96-3-110-5z"/></g><g fill="#7c7372" transform="matrix(.1 0 0 -.1 0 300)"><path d="M490 1703c-14-2-43-9-64-14l-39-11 6-131 5-132 21-102c51-248 143-419 308-573 81-76 201-160 298-208 58-29 227-92 246-92 6 0-17 22-50 50-117 98-257 294-326 457-37 90-79 227-73 242 2 4 122-153 268-351 145-197 266-358 268-358 7 0-8 177-24 285-48 334-194 675-346 809l-53 47-61 29c-33 16-90 36-125 45l-64 15-85-2c-47 0-96-3-110-5z"/></g><g fill="#443a3a" transform="matrix(.1 0 0 -.1 0 300)"><path d="M515 1704c-11-3-44-10-74-16l-54-10 6-122c14-276 95-529 218-686 137-175 344-319 573-399l88-31-78 72-78 73-58 79c-77 103-128 192-171 296-38 92-70 203-65 226l3 15 260-352 260-351 3 56 3 56-15 118c-9 65-30 174-47 241l-31 123-47 118-47 118-50 82-49 82-58 58-58 58-57 30c-31 17-82 37-112 46l-55 17-95 4c-52 2-104 2-115-1z"/></g></g></svg>